<svg xmlns="http://www.w3.org/2000/svg" viewBox="0 0 512 512">
  <defs>
    <radialGradient id="bg" cx="42%" cy="34%" r="78%">
      <stop offset="0" stop-color="#221d1a"/>
      <stop offset="0.48" stop-color="#14110f"/>
      <stop offset="1" stop-color="#070504"/>
    </radialGradient>
    <linearGradient id="bronze" x1="0" y1="0" x2="0" y2="1">
      <stop offset="0" stop-color="#d4b478"/>
      <stop offset="1" stop-color="#836a3a"/>
    </linearGradient>
    <linearGradient id="gold" x1="0" y1="0" x2="0" y2="1">
      <stop offset="0" stop-color="#e3c98c"/>
      <stop offset="0.46" stop-color="#b08d4e"/>
      <stop offset="1" stop-color="#6a5128"/>
    </linearGradient>
    <filter id="glow" x="-35%" y="-35%" width="170%" height="170%">
      <feGaussianBlur stdDeviation="8" result="blur"/>
      <feMerge>
        <feMergeNode in="blur"/>
        <feMergeNode in="SourceGraphic"/>
      </feMerge>
    </filter>
  </defs>
  <rect width="512" height="512" rx="112" fill="url(#bg)"/>
  <rect x="16" y="16" width="480" height="480" rx="98" fill="none" stroke="#7a6340" stroke-opacity="0.3" stroke-width="4"/>
  <g transform="translate(256 256) scale(2.08)" fill="none" filter="url(#glow)">
    <circle r="90" stroke="url(#bronze)" stroke-width="1.6"/>
    <circle r="84" stroke="#b08d4e" stroke-opacity="0.24" stroke-width="0.8"/>
    <rect x="-62" y="-62" width="124" height="124" rx="2" stroke="#9a7c4a" stroke-opacity="0.36" stroke-width="1.1"/>
    <rect x="-44" y="-44" width="88" height="88" rx="2" stroke="#9a7c4a" stroke-opacity="0.38" stroke-width="1.1" transform="rotate(45)"/>
    <circle r="41" stroke="url(#gold)" stroke-width="4.5"/>
    <circle r="34" stroke="#b08d4e" stroke-opacity="0.32" stroke-width="0.8"/>
    <g stroke="#cfa962" stroke-width="3.4">
      <line x1="0" y1="-16" x2="0" y2="-37" transform="rotate(0)"/>
      <line x1="0" y1="-16" x2="0" y2="-37" transform="rotate(45)"/>
      <line x1="0" y1="-16" x2="0" y2="-37" transform="rotate(90)"/>
      <line x1="0" y1="-16" x2="0" y2="-37" transform="rotate(135)"/>
      <line x1="0" y1="-16" x2="0" y2="-37" transform="rotate(180)"/>
      <line x1="0" y1="-16" x2="0" y2="-37" transform="rotate(225)"/>
      <line x1="0" y1="-16" x2="0" y2="-37" transform="rotate(270)"/>
      <line x1="0" y1="-16" x2="0" y2="-37" transform="rotate(315)"/>
    </g>
    <circle r="12" stroke="#cfa962" stroke-width="2.2"/>
  </g>
</svg>
