<svg xmlns="http://www.w3.org/2000/svg" viewBox="0 0 48 48" width="48" height="48"><circle cx="24" cy="24" r="20" fill="none" stroke="#d1a24a" stroke-width="1.3" stroke-opacity="0.9"/><circle cx="24" cy="24" r="17" fill="none" stroke="#d1a24a" stroke-width="0.9" stroke-opacity="0.32"/><g transform="translate(12,12)" fill="none" stroke="#d1a24a" stroke-width="1.6" stroke-linecap="round" stroke-linejoin="round"><path d="M8 12V7a1 1 0 0 1 2 0v4"/><path d="M10 9a1 1 0 0 1 2 0v6a4 4 0 0 1-4 4H7a3 3 0 0 1-3-3v-3a1 1 0 0 1 2 0"/><path d="M15 5l.5 1.4L17 7l-1.5.5L15 9l-.5-1.5L13 7z"/></g></svg>