<svg xmlns="http://www.w3.org/2000/svg" viewBox="0 0 48 48" width="48" height="48"><circle cx="24" cy="24" r="20" fill="none" stroke="#5a8e94" stroke-width="1.3" stroke-opacity="0.9"/><circle cx="24" cy="24" r="17" fill="none" stroke="#5a8e94" stroke-width="0.9" stroke-opacity="0.32"/><line x1="24.0" y1="3.5" x2="24.0" y2="1.8" stroke="#5a8e94" stroke-width="1" stroke-linecap="round" stroke-opacity="0.6"/><line x1="44.5" y1="24.0" x2="46.2" y2="24.0" stroke="#5a8e94" stroke-width="1" stroke-linecap="round" stroke-opacity="0.6"/><line x1="24.0" y1="44.5" x2="24.0" y2="46.2" stroke="#5a8e94" stroke-width="1" stroke-linecap="round" stroke-opacity="0.6"/><line x1="3.5" y1="24.0" x2="1.8" y2="24.0" stroke="#5a8e94" stroke-width="1" stroke-linecap="round" stroke-opacity="0.6"/><g transform="translate(12,12)" fill="none" stroke="#5a8e94" stroke-width="1.6" stroke-linecap="round" stroke-linejoin="round"><path d="M4 7h13a2 2 0 0 1 2 2v4a2 2 0 0 1-2 2H9l-4 3v-3a2 2 0 0 1-1-2V9a2 2 0 0 1 0-2z"/><path d="M8 11h.5M11.5 9v4M9.5 11h4M15.5 11h.5"/></g></svg>