<svg xmlns="http://www.w3.org/2000/svg" viewBox="0 0 48 48" width="48" height="48"><circle cx="24" cy="24" r="20" fill="none" stroke="#98a24f" stroke-width="1.3" stroke-opacity="0.9"/><circle cx="24" cy="24" r="17" fill="none" stroke="#98a24f" stroke-width="0.9" stroke-opacity="0.32"/><line x1="24.0" y1="3.5" x2="24.0" y2="1.8" stroke="#98a24f" stroke-width="1" stroke-linecap="round" stroke-opacity="0.6"/><line x1="44.5" y1="24.0" x2="46.2" y2="24.0" stroke="#98a24f" stroke-width="1" stroke-linecap="round" stroke-opacity="0.6"/><line x1="24.0" y1="44.5" x2="24.0" y2="46.2" stroke="#98a24f" stroke-width="1" stroke-linecap="round" stroke-opacity="0.6"/><line x1="3.5" y1="24.0" x2="1.8" y2="24.0" stroke="#98a24f" stroke-width="1" stroke-linecap="round" stroke-opacity="0.6"/><g transform="translate(12,12)" fill="none" stroke="#7c9146" stroke-width="1.6" stroke-linecap="round" stroke-linejoin="round"><path d="M8 12V8a1 1 0 0 1 2 0M10 11V6.5a1 1 0 0 1 2 0M12 11V7a1 1 0 0 1 2 0v4l1.5 1v2a5 5 0 0 1-5 5H10a3 3 0 0 1-3-3v-3"/><path d="M18 6c-1 1.5-2 2-2 3M20 8c-1 1-2 1-2 2" style="stroke-dasharray:1.5 1.5"/></g></svg>