<svg xmlns="http://www.w3.org/2000/svg" viewBox="0 0 48 48" width="48" height="48"><circle cx="24" cy="24" r="20" fill="none" stroke="#4f9d6b" stroke-width="1.3" stroke-opacity="0.9"/><circle cx="24" cy="24" r="17" fill="none" stroke="#4f9d6b" stroke-width="0.9" stroke-opacity="0.32"/><line x1="24.0" y1="3.5" x2="24.0" y2="1.8" stroke="#4f9d6b" stroke-width="1" stroke-linecap="round" stroke-opacity="0.6"/><line x1="38.5" y1="9.5" x2="39.7" y2="8.3" stroke="#4f9d6b" stroke-width="1" stroke-linecap="round" stroke-opacity="0.6"/><line x1="44.5" y1="24.0" x2="46.2" y2="24.0" stroke="#4f9d6b" stroke-width="1" stroke-linecap="round" stroke-opacity="0.6"/><line x1="38.5" y1="38.5" x2="39.7" y2="39.7" stroke="#4f9d6b" stroke-width="1" stroke-linecap="round" stroke-opacity="0.6"/><line x1="24.0" y1="44.5" x2="24.0" y2="46.2" stroke="#4f9d6b" stroke-width="1" stroke-linecap="round" stroke-opacity="0.6"/><line x1="9.5" y1="38.5" x2="8.3" y2="39.7" stroke="#4f9d6b" stroke-width="1" stroke-linecap="round" stroke-opacity="0.6"/><line x1="3.5" y1="24.0" x2="1.8" y2="24.0" stroke="#4f9d6b" stroke-width="1" stroke-linecap="round" stroke-opacity="0.6"/><line x1="9.5" y1="9.5" x2="8.3" y2="8.3" stroke="#4f9d6b" stroke-width="1" stroke-linecap="round" stroke-opacity="0.6"/><g transform="translate(12,12)" fill="none" stroke="#4f9d6b" stroke-width="1.6" stroke-linecap="round" stroke-linejoin="round"><path d="M5 10h14v9H5z"/><path d="M5 10a4 4 0 0 1 14 0"/><rect x="11" y="12" width="2" height="3"/><path d="M17 6l3-2" style="stroke-dasharray:1.5 1.5"/></g></svg>