<svg xmlns="http://www.w3.org/2000/svg" viewBox="0 0 48 48" width="48" height="48"><defs><linearGradient id="elEVO4IceStorm" gradientUnits="userSpaceOnUse" x1="13" y1="13" x2="35" y2="35"><stop offset="0%" stop-color="#a89a86"/><stop offset="100%" stop-color="#6fc0dd"/></linearGradient></defs><circle cx="24" cy="24" r="20" fill="none" stroke="#c94a2c" stroke-width="1.3" stroke-opacity="0.9"/><circle cx="24" cy="24" r="17" fill="none" stroke="#c94a2c" stroke-width="0.9" stroke-opacity="0.32"/><line x1="24.0" y1="3.5" x2="24.0" y2="1.8" stroke="#c94a2c" stroke-width="1" stroke-linecap="round" stroke-opacity="0.6"/><line x1="38.5" y1="9.5" x2="39.7" y2="8.3" stroke="#c94a2c" stroke-width="1" stroke-linecap="round" stroke-opacity="0.6"/><line x1="44.5" y1="24.0" x2="46.2" y2="24.0" stroke="#c94a2c" stroke-width="1" stroke-linecap="round" stroke-opacity="0.6"/><line x1="38.5" y1="38.5" x2="39.7" y2="39.7" stroke="#c94a2c" stroke-width="1" stroke-linecap="round" stroke-opacity="0.6"/><line x1="24.0" y1="44.5" x2="24.0" y2="46.2" stroke="#c94a2c" stroke-width="1" stroke-linecap="round" stroke-opacity="0.6"/><line x1="9.5" y1="38.5" x2="8.3" y2="39.7" stroke="#c94a2c" stroke-width="1" stroke-linecap="round" stroke-opacity="0.6"/><line x1="3.5" y1="24.0" x2="1.8" y2="24.0" stroke="#c94a2c" stroke-width="1" stroke-linecap="round" stroke-opacity="0.6"/><line x1="9.5" y1="9.5" x2="8.3" y2="8.3" stroke="#c94a2c" stroke-width="1" stroke-linecap="round" stroke-opacity="0.6"/><g transform="translate(12,12)" fill="none" stroke="url(#elEVO4IceStorm)" stroke-width="1.6" stroke-linecap="round" stroke-linejoin="round"><path d="M12 4v6M9 6l6 2M15 6l-6 2"/><path d="M7 14l-1 2M10 15l-1 2M13 14l-1 2M16 15l-1 2M9 18l-1 2M14 18l-1 2"/></g></svg>