<svg xmlns="http://www.w3.org/2000/svg" viewBox="0 0 48 48" width="48" height="48"><circle cx="24" cy="24" r="21.5" fill="none" stroke="#d1a24a" stroke-width="2.6" stroke-opacity="0.13"/><circle cx="24" cy="24" r="20" fill="none" stroke="#d1a24a" stroke-width="1.3" stroke-opacity="0.9"/><circle cx="24" cy="24" r="17" fill="none" stroke="#d1a24a" stroke-width="0.9" stroke-opacity="0.32"/><line x1="24.0" y1="3.5" x2="24.0" y2="1.8" stroke="#d1a24a" stroke-width="1" stroke-linecap="round" stroke-opacity="0.6"/><line x1="38.5" y1="9.5" x2="39.7" y2="8.3" stroke="#d1a24a" stroke-width="1" stroke-linecap="round" stroke-opacity="0.6"/><line x1="44.5" y1="24.0" x2="46.2" y2="24.0" stroke="#d1a24a" stroke-width="1" stroke-linecap="round" stroke-opacity="0.6"/><line x1="38.5" y1="38.5" x2="39.7" y2="39.7" stroke="#d1a24a" stroke-width="1" stroke-linecap="round" stroke-opacity="0.6"/><line x1="24.0" y1="44.5" x2="24.0" y2="46.2" stroke="#d1a24a" stroke-width="1" stroke-linecap="round" stroke-opacity="0.6"/><line x1="9.5" y1="38.5" x2="8.3" y2="39.7" stroke="#d1a24a" stroke-width="1" stroke-linecap="round" stroke-opacity="0.6"/><line x1="3.5" y1="24.0" x2="1.8" y2="24.0" stroke="#d1a24a" stroke-width="1" stroke-linecap="round" stroke-opacity="0.6"/><line x1="9.5" y1="9.5" x2="8.3" y2="8.3" stroke="#d1a24a" stroke-width="1" stroke-linecap="round" stroke-opacity="0.6"/><g transform="translate(12,12)" fill="none" stroke="#d1a24a" stroke-width="1.6" stroke-linecap="round" stroke-linejoin="round"><rect x="7" y="6" width="10" height="8" rx="1"/><circle cx="10" cy="9.5" r=".8"/><circle cx="14" cy="9.5" r=".8"/><path d="M9 14v4M15 14v4M11 14v3M13 14v3"/></g></svg>