<svg xmlns="http://www.w3.org/2000/svg" viewBox="0 0 48 48" width="48" height="48"><circle cx="24" cy="24" r="21.5" fill="none" stroke="#d1a24a" stroke-width="2.6" stroke-opacity="0.13"/><circle cx="24" cy="24" r="20" fill="none" stroke="#d1a24a" stroke-width="1.3" stroke-opacity="0.9"/><circle cx="24" cy="24" r="17" fill="none" stroke="#d1a24a" stroke-width="0.9" stroke-opacity="0.32"/><line x1="24.0" y1="3.5" x2="24.0" y2="1.8" stroke="#d1a24a" stroke-width="1" stroke-linecap="round" stroke-opacity="0.6"/><line x1="34.3" y1="6.2" x2="35.1" y2="4.8" stroke="#d1a24a" stroke-width="1" stroke-linecap="round" stroke-opacity="0.6"/><line x1="41.8" y1="13.7" x2="43.2" y2="12.9" stroke="#d1a24a" stroke-width="1" stroke-linecap="round" stroke-opacity="0.6"/><line x1="44.5" y1="24.0" x2="46.2" y2="24.0" stroke="#d1a24a" stroke-width="1" stroke-linecap="round" stroke-opacity="0.6"/><line x1="41.8" y1="34.2" x2="43.2" y2="35.1" stroke="#d1a24a" stroke-width="1" stroke-linecap="round" stroke-opacity="0.6"/><line x1="34.3" y1="41.8" x2="35.1" y2="43.2" stroke="#d1a24a" stroke-width="1" stroke-linecap="round" stroke-opacity="0.6"/><line x1="24.0" y1="44.5" x2="24.0" y2="46.2" stroke="#d1a24a" stroke-width="1" stroke-linecap="round" stroke-opacity="0.6"/><line x1="13.7" y1="41.8" x2="12.9" y2="43.2" stroke="#d1a24a" stroke-width="1" stroke-linecap="round" stroke-opacity="0.6"/><line x1="6.2" y1="34.3" x2="4.8" y2="35.1" stroke="#d1a24a" stroke-width="1" stroke-linecap="round" stroke-opacity="0.6"/><line x1="3.5" y1="24.0" x2="1.8" y2="24.0" stroke="#d1a24a" stroke-width="1" stroke-linecap="round" stroke-opacity="0.6"/><line x1="6.2" y1="13.7" x2="4.8" y2="12.9" stroke="#d1a24a" stroke-width="1" stroke-linecap="round" stroke-opacity="0.6"/><line x1="13.7" y1="6.2" x2="12.9" y2="4.8" stroke="#d1a24a" stroke-width="1" stroke-linecap="round" stroke-opacity="0.6"/><circle cx="24.0" cy="4.0" r="1.3" fill="#d1a24a" fill-opacity="0.9"/><circle cx="44.0" cy="24.0" r="1.3" fill="#d1a24a" fill-opacity="0.9"/><circle cx="24.0" cy="44.0" r="1.3" fill="#d1a24a" fill-opacity="0.9"/><circle cx="4.0" cy="24.0" r="1.3" fill="#d1a24a" fill-opacity="0.9"/><g transform="translate(12,12)" fill="none" stroke="#cf83db" stroke-width="1.6" stroke-linecap="round" stroke-linejoin="round"><path d="M6 8h6v6H6z"/><circle cx="15" cy="8" r=".7"/><circle cx="17" cy="11" r=".7"/><circle cx="16" cy="14" r=".7"/><circle cx="18" cy="15" r=".6"/><path d="M12 9l3-1M12 13l3 1"/></g></svg>