<svg xmlns="http://www.w3.org/2000/svg" viewBox="0 0 48 48" width="48" height="48"><defs><linearGradient id="elABJ9PrismaticWall" gradientUnits="userSpaceOnUse" x1="13" y1="13" x2="35" y2="35"><stop offset="0%" stop-color="#a9c73c"/><stop offset="25%" stop-color="#6fc0dd"/><stop offset="50%" stop-color="#df5f2a"/><stop offset="75%" stop-color="#efc94a"/><stop offset="100%" stop-color="#5aa84e"/></linearGradient></defs><circle cx="24" cy="24" r="21.5" fill="none" stroke="#5a8e94" stroke-width="2.6" stroke-opacity="0.22"/><circle cx="24" cy="24" r="20" fill="none" stroke="#5a8e94" stroke-width="1.3" stroke-opacity="0.9"/><circle cx="24" cy="24" r="17" fill="none" stroke="#5a8e94" stroke-width="0.9" stroke-opacity="0.32"/><circle cx="24" cy="24" r="22.7" fill="none" stroke="#5a8e94" stroke-width="0.9" stroke-opacity="0.5"/><line x1="24.0" y1="3.5" x2="24.0" y2="1.8" stroke="#5a8e94" stroke-width="1" stroke-linecap="round" stroke-opacity="0.6"/><line x1="31.8" y1="5.1" x2="32.5" y2="3.5" stroke="#5a8e94" stroke-width="1" stroke-linecap="round" stroke-opacity="0.6"/><line x1="38.5" y1="9.5" x2="39.7" y2="8.3" stroke="#5a8e94" stroke-width="1" stroke-linecap="round" stroke-opacity="0.6"/><line x1="42.9" y1="16.2" x2="44.5" y2="15.5" stroke="#5a8e94" stroke-width="1" stroke-linecap="round" stroke-opacity="0.6"/><line x1="44.5" y1="24.0" x2="46.2" y2="24.0" stroke="#5a8e94" stroke-width="1" stroke-linecap="round" stroke-opacity="0.6"/><line x1="42.9" y1="31.8" x2="44.5" y2="32.5" stroke="#5a8e94" stroke-width="1" stroke-linecap="round" stroke-opacity="0.6"/><line x1="38.5" y1="38.5" x2="39.7" y2="39.7" stroke="#5a8e94" stroke-width="1" stroke-linecap="round" stroke-opacity="0.6"/><line x1="31.8" y1="42.9" x2="32.5" y2="44.5" stroke="#5a8e94" stroke-width="1" stroke-linecap="round" stroke-opacity="0.6"/><line x1="24.0" y1="44.5" x2="24.0" y2="46.2" stroke="#5a8e94" stroke-width="1" stroke-linecap="round" stroke-opacity="0.6"/><line x1="16.2" y1="42.9" x2="15.5" y2="44.5" stroke="#5a8e94" stroke-width="1" stroke-linecap="round" stroke-opacity="0.6"/><line x1="9.5" y1="38.5" x2="8.3" y2="39.7" stroke="#5a8e94" stroke-width="1" stroke-linecap="round" stroke-opacity="0.6"/><line x1="5.1" y1="31.8" x2="3.5" y2="32.5" stroke="#5a8e94" stroke-width="1" stroke-linecap="round" stroke-opacity="0.6"/><line x1="3.5" y1="24.0" x2="1.8" y2="24.0" stroke="#5a8e94" stroke-width="1" stroke-linecap="round" stroke-opacity="0.6"/><line x1="5.1" y1="16.2" x2="3.5" y2="15.5" stroke="#5a8e94" stroke-width="1" stroke-linecap="round" stroke-opacity="0.6"/><line x1="9.5" y1="9.5" x2="8.3" y2="8.3" stroke="#5a8e94" stroke-width="1" stroke-linecap="round" stroke-opacity="0.6"/><line x1="16.2" y1="5.1" x2="15.5" y2="3.5" stroke="#5a8e94" stroke-width="1" stroke-linecap="round" stroke-opacity="0.6"/><line x1="28.1" y1="3.4" x2="28.6" y2="0.9" stroke="#5a8e94" stroke-width="1.1" stroke-linecap="round" stroke-opacity="0.8"/><line x1="35.7" y1="6.5" x2="37.1" y2="4.4" stroke="#5a8e94" stroke-width="1.1" stroke-linecap="round" stroke-opacity="0.8"/><line x1="41.5" y1="12.3" x2="43.6" y2="10.9" stroke="#5a8e94" stroke-width="1.1" stroke-linecap="round" stroke-opacity="0.8"/><line x1="44.6" y1="19.9" x2="47.1" y2="19.4" stroke="#5a8e94" stroke-width="1.1" stroke-linecap="round" stroke-opacity="0.8"/><line x1="44.6" y1="28.1" x2="47.1" y2="28.6" stroke="#5a8e94" stroke-width="1.1" stroke-linecap="round" stroke-opacity="0.8"/><line x1="41.5" y1="35.7" x2="43.6" y2="37.1" stroke="#5a8e94" stroke-width="1.1" stroke-linecap="round" stroke-opacity="0.8"/><line x1="35.7" y1="41.5" x2="37.1" y2="43.6" stroke="#5a8e94" stroke-width="1.1" stroke-linecap="round" stroke-opacity="0.8"/><line x1="28.1" y1="44.6" x2="28.6" y2="47.1" stroke="#5a8e94" stroke-width="1.1" stroke-linecap="round" stroke-opacity="0.8"/><line x1="19.9" y1="44.6" x2="19.4" y2="47.1" stroke="#5a8e94" stroke-width="1.1" stroke-linecap="round" stroke-opacity="0.8"/><line x1="12.3" y1="41.5" x2="10.9" y2="43.6" stroke="#5a8e94" stroke-width="1.1" stroke-linecap="round" stroke-opacity="0.8"/><line x1="6.5" y1="35.7" x2="4.4" y2="37.1" stroke="#5a8e94" stroke-width="1.1" stroke-linecap="round" stroke-opacity="0.8"/><line x1="3.4" y1="28.1" x2="0.9" y2="28.6" stroke="#5a8e94" stroke-width="1.1" stroke-linecap="round" stroke-opacity="0.8"/><line x1="3.4" y1="19.9" x2="0.9" y2="19.4" stroke="#5a8e94" stroke-width="1.1" stroke-linecap="round" stroke-opacity="0.8"/><line x1="6.5" y1="12.3" x2="4.4" y2="10.9" stroke="#5a8e94" stroke-width="1.1" stroke-linecap="round" stroke-opacity="0.8"/><line x1="12.3" y1="6.5" x2="10.9" y2="4.4" stroke="#5a8e94" stroke-width="1.1" stroke-linecap="round" stroke-opacity="0.8"/><line x1="19.9" y1="3.4" x2="19.4" y2="0.9" stroke="#5a8e94" stroke-width="1.1" stroke-linecap="round" stroke-opacity="0.8"/><circle cx="24.0" cy="4.0" r="1.3" fill="#5a8e94" fill-opacity="0.9"/><circle cx="38.1" cy="9.9" r="1.3" fill="#5a8e94" fill-opacity="0.9"/><circle cx="44.0" cy="24.0" r="1.3" fill="#5a8e94" fill-opacity="0.9"/><circle cx="38.1" cy="38.1" r="1.3" fill="#5a8e94" fill-opacity="0.9"/><circle cx="24.0" cy="44.0" r="1.3" fill="#5a8e94" fill-opacity="0.9"/><circle cx="9.9" cy="38.1" r="1.3" fill="#5a8e94" fill-opacity="0.9"/><circle cx="4.0" cy="24.0" r="1.3" fill="#5a8e94" fill-opacity="0.9"/><circle cx="9.9" cy="9.9" r="1.3" fill="#5a8e94" fill-opacity="0.9"/><g transform="translate(12,12)" fill="none" stroke="url(#elABJ9PrismaticWall)" stroke-width="1.6" stroke-linecap="round" stroke-linejoin="round"><path d="M6 4v16M9 4v16M12 4v16M15 4v16M18 4v16"/></g></svg>